<svg width="126" height="24" viewBox="0 0 126 24" fill="none" xmlns="http://www.w3.org/2000/svg">
<circle cx="10" cy="12" r="10" fill="#0083FF"/>
<circle cx="20" cy="12" r="10" fill="#96DFFE"/>
<path d="M42.04 19C41.9067 19 41.7933 18.9533 41.7 18.86C41.6067 18.7667 41.56 18.6533 41.56 18.52V5.5C41.56 5.35333 41.6 5.23333 41.68 5.14C41.7733 5.04667 41.8933 5 42.04 5H47.4C49 5 50.26 5.38 51.18 6.14C52.1 6.88667 52.56 7.98667 52.56 9.44C52.56 10.8933 52.1 11.9933 51.18 12.74C50.2733 13.4733 49.0133 13.84 47.4 13.84H44.42V18.52C44.42 18.6533 44.3733 18.7667 44.28 18.86C44.2 18.9533 44.0867 19 43.94 19H42.04ZM47.3 11.62C48.0733 11.62 48.6667 11.44 49.08 11.08C49.4933 10.7067 49.7 10.16 49.7 9.44C49.7 8.74667 49.5 8.20667 49.1 7.82C48.7 7.42 48.1 7.22 47.3 7.22H44.38V11.62H47.3ZM54.9036 6.88C54.7703 6.88 54.6569 6.83333 54.5636 6.74C54.4703 6.64667 54.4236 6.53333 54.4236 6.4V4.96C54.4236 4.82667 54.4703 4.71333 54.5636 4.62C54.6569 4.52667 54.7703 4.48 54.9036 4.48H56.7236C56.8569 4.48 56.9703 4.52667 57.0636 4.62C57.1703 4.71333 57.2236 4.82667 57.2236 4.96V6.4C57.2236 6.53333 57.1769 6.64667 57.0836 6.74C56.9903 6.83333 56.8703 6.88 56.7236 6.88H54.9036ZM54.9836 19C54.8503 19 54.7369 18.9533 54.6436 18.86C54.5503 18.7667 54.5036 18.6533 54.5036 18.52V9.08C54.5036 8.94667 54.5503 8.83333 54.6436 8.74C54.7369 8.64667 54.8503 8.6 54.9836 8.6H56.6436C56.7903 8.6 56.9036 8.64667 56.9836 8.74C57.0769 8.82 57.1236 8.93333 57.1236 9.08V18.52C57.1236 18.6533 57.0769 18.7667 56.9836 18.86C56.9036 18.9533 56.7903 19 56.6436 19H54.9836ZM59.337 19C59.217 19 59.1104 18.96 59.017 18.88C58.937 18.7867 58.897 18.68 58.897 18.56C58.897 18.44 58.9437 18.3267 59.037 18.22L62.437 13.66L59.277 9.38C59.197 9.27333 59.157 9.16 59.157 9.04C59.157 8.92 59.197 8.82 59.277 8.74C59.3704 8.64667 59.477 8.6 59.597 8.6H61.337C61.4704 8.6 61.5704 8.63333 61.637 8.7C61.717 8.75333 61.797 8.83333 61.877 8.94L64.137 11.94L66.397 8.94C66.4104 8.92667 66.4637 8.86667 66.557 8.76C66.637 8.65333 66.7637 8.6 66.937 8.6H68.597C68.717 8.6 68.817 8.64667 68.897 8.74C68.9904 8.82 69.037 8.91333 69.037 9.02C69.037 9.15333 68.997 9.27333 68.917 9.38L65.717 13.7L69.137 18.22C69.2304 18.3267 69.277 18.44 69.277 18.56C69.277 18.68 69.2304 18.7867 69.137 18.88C69.057 18.96 68.957 19 68.837 19H67.017C66.8037 19 66.6237 18.8933 66.477 18.68L64.077 15.5L61.637 18.68C61.4904 18.8933 61.3104 19 61.097 19H59.337ZM75.2141 19.2C73.7341 19.2 72.5541 18.7733 71.6741 17.92C70.8074 17.0533 70.3474 15.84 70.2941 14.28L70.2741 13.78L70.2941 13.28C70.3607 11.76 70.8274 10.5667 71.6941 9.7C72.5741 8.83333 73.7474 8.4 75.2141 8.4C76.7874 8.4 78.0007 8.88 78.8541 9.84C79.7207 10.8 80.1541 12.08 80.1541 13.68V14.1C80.1541 14.2333 80.1074 14.3467 80.0141 14.44C79.9207 14.5333 79.8007 14.58 79.6541 14.58H73.0141V14.74C73.0407 15.4733 73.2407 16.0933 73.6141 16.6C74.0007 17.0933 74.5274 17.34 75.1941 17.34C75.9807 17.34 76.6141 17.0333 77.0941 16.42C77.2141 16.2733 77.3074 16.18 77.3741 16.14C77.4541 16.1 77.5674 16.08 77.7141 16.08H79.4341C79.5541 16.08 79.6541 16.12 79.7341 16.2C79.8274 16.2667 79.8741 16.3533 79.8741 16.46C79.8741 16.78 79.6807 17.16 79.2941 17.6C78.9207 18.0267 78.3807 18.4 77.6741 18.72C76.9674 19.04 76.1474 19.2 75.2141 19.2ZM77.4341 12.9V12.84C77.4341 12.0533 77.2341 11.42 76.8341 10.94C76.4474 10.46 75.9074 10.22 75.2141 10.22C74.5207 10.22 73.9807 10.46 73.5941 10.94C73.2074 11.42 73.0141 12.0533 73.0141 12.84V12.9H77.4341ZM82.777 19C82.6437 19 82.5304 18.9533 82.437 18.86C82.3437 18.7667 82.297 18.6533 82.297 18.52V5.28C82.297 5.13333 82.3437 5.02 82.437 4.94C82.5304 4.84667 82.6437 4.8 82.777 4.8H84.437C84.5837 4.8 84.697 4.84667 84.777 4.94C84.8704 5.02 84.917 5.13333 84.917 5.28V18.52C84.917 18.6533 84.8704 18.7667 84.777 18.86C84.697 18.9533 84.5837 19 84.437 19H82.777ZM90.11 19C89.91 19 89.75 18.9467 89.63 18.84C89.51 18.7333 89.4367 18.5867 89.41 18.4L87.03 5.58L87.01 5.42C87.01 5.3 87.05 5.2 87.13 5.12C87.2233 5.04 87.3233 5 87.43 5H89.19C89.5233 5 89.71 5.13333 89.75 5.4L91.41 14.46L93.21 8.6C93.3433 8.26667 93.5633 8.1 93.87 8.1H94.95C95.2833 8.1 95.4967 8.26667 95.59 8.6L97.41 14.44L99.07 5.4C99.0967 5.25333 99.15 5.15333 99.23 5.1C99.3233 5.03333 99.4567 5 99.63 5H101.39C101.497 5 101.59 5.04 101.67 5.12C101.75 5.2 101.79 5.3 101.79 5.42C101.79 5.48667 101.783 5.54 101.77 5.58L99.39 18.4C99.3233 18.8 99.09 19 98.69 19H97.35C97.1633 19 97.01 18.9533 96.89 18.86C96.77 18.7667 96.69 18.6467 96.65 18.5L94.41 11.82L92.17 18.5C92.0367 18.8333 91.7967 19 91.45 19H90.11ZM107.988 19.2C106.508 19.2 105.328 18.7733 104.448 17.92C103.581 17.0533 103.121 15.84 103.068 14.28L103.048 13.78L103.068 13.28C103.134 11.76 103.601 10.5667 104.468 9.7C105.348 8.83333 106.521 8.4 107.988 8.4C109.561 8.4 110.774 8.88 111.628 9.84C112.494 10.8 112.928 12.08 112.928 13.68V14.1C112.928 14.2333 112.881 14.3467 112.788 14.44C112.694 14.5333 112.574 14.58 112.428 14.58H105.788V14.74C105.814 15.4733 106.014 16.0933 106.388 16.6C106.774 17.0933 107.301 17.34 107.968 17.34C108.754 17.34 109.388 17.0333 109.868 16.42C109.988 16.2733 110.081 16.18 110.148 16.14C110.228 16.1 110.341 16.08 110.488 16.08H112.208C112.328 16.08 112.428 16.12 112.508 16.2C112.601 16.2667 112.648 16.3533 112.648 16.46C112.648 16.78 112.454 17.16 112.068 17.6C111.694 18.0267 111.154 18.4 110.448 18.72C109.741 19.04 108.921 19.2 107.988 19.2ZM110.208 12.9V12.84C110.208 12.0533 110.008 11.42 109.608 10.94C109.221 10.46 108.681 10.22 107.988 10.22C107.294 10.22 106.754 10.46 106.368 10.94C105.981 11.42 105.788 12.0533 105.788 12.84V12.9H110.208ZM120.81 19.2C119.437 19.2 118.37 18.7267 117.61 17.78V18.52C117.61 18.6533 117.564 18.7667 117.47 18.86C117.39 18.9533 117.277 19 117.13 19H115.55C115.417 19 115.304 18.9533 115.21 18.86C115.117 18.7667 115.07 18.6533 115.07 18.52V5.28C115.07 5.13333 115.117 5.02 115.21 4.94C115.304 4.84667 115.417 4.8 115.55 4.8H117.25C117.397 4.8 117.51 4.84667 117.59 4.94C117.684 5.02 117.73 5.13333 117.73 5.28V9.72C118.49 8.84 119.517 8.4 120.81 8.4C122.157 8.4 123.19 8.84 123.91 9.72C124.63 10.6 125.017 11.74 125.07 13.14C125.084 13.3 125.09 13.5133 125.09 13.78C125.09 14.06 125.084 14.28 125.07 14.44C125.017 15.88 124.63 17.0333 123.91 17.9C123.19 18.7667 122.157 19.2 120.81 19.2ZM120.07 17.06C121.51 17.06 122.277 16.1733 122.37 14.4C122.384 14.2667 122.39 14.0667 122.39 13.8C122.39 13.5333 122.384 13.3333 122.37 13.2C122.277 11.4267 121.51 10.54 120.07 10.54C119.324 10.54 118.75 10.78 118.35 11.26C117.964 11.7267 117.757 12.2933 117.73 12.96L117.71 13.72L117.73 14.5C117.77 15.22 117.977 15.8267 118.35 16.32C118.724 16.8133 119.297 17.06 120.07 17.06Z" fill="white"/>
</svg>
